<svg width="65" height="64" viewBox="0 0 65 64" fill="none" xmlns="http://www.w3.org/2000/svg">
<rect x="0.666626" width="64" height="64" rx="32" fill="#9CA3AF"/>
<path fill-rule="evenodd" clip-rule="evenodd" d="M25.1666 22C25.1666 20.0109 25.9568 18.1032 27.3633 16.6967C28.7698 15.2902 30.6775 14.5 32.6666 14.5C34.6557 14.5 36.5634 15.2902 37.9699 16.6967C39.3764 18.1032 40.1666 20.0109 40.1666 22C40.1666 23.9891 39.3764 25.8968 37.9699 27.3033C36.5634 28.7098 34.6557 29.5 32.6666 29.5C30.6775 29.5 28.7698 28.7098 27.3633 27.3033C25.9568 25.8968 25.1666 23.9891 25.1666 22ZM18.9183 45.5083C18.9745 41.8991 20.4477 38.4568 23.0199 35.9243C25.5921 33.3918 29.057 31.9724 32.6666 31.9724C36.2763 31.9724 39.7412 33.3918 42.3134 35.9243C44.8856 38.4568 46.3588 41.8991 46.415 45.5083C46.4193 45.7513 46.3527 45.9903 46.2234 46.196C46.094 46.4017 45.9075 46.5653 45.6866 46.6667C41.6019 48.5395 37.1602 49.5061 32.6666 49.5C28.0233 49.5 23.6116 48.4867 19.6466 46.6667C19.4258 46.5653 19.2392 46.4017 19.1099 46.196C18.9805 45.9903 18.914 45.7513 18.9183 45.5083Z" fill="black"/>
</svg>
